<svg xmlns="http://www.w3.org/2000/svg" width="256" height="256"><path fill="#1976D2" fill-opacity=".016" fill-rule="evenodd" d="M0 128.004v128.004l128.25-.254 128.25-.254.254-127.75L257.008 0H0zm.485.496c0 70.4.119 99.053.265 63.672s.146-92.98 0-128S.485 58.1.485 128.5"/><path fill="#1976D2" fill-opacity=".151" fill-rule="evenodd" d="M5 90.5V181h60V58h58.05c63.685 0 62.281-.128 65.433 5.967 1.924 3.72 1.949 10.298.053 13.964-.805 1.557-2.865 4.009-4.577 5.45L180.847 86H94.262l-.62 3.75c-.918 5.555-.744 23.14.362 36.485 1.678 20.251 5.591 34.948 13.521 50.789 21.224 42.393 76.958 75.687 131.725 78.687l10.75.589v-58.96l-13.25-1.184c-18.222-1.63-30.821-4.395-39.448-8.657-12.196-6.026-28.4-22.827-35.41-36.714-1.591-3.15-2.892-5.922-2.892-6.159s7.988-.603 17.75-.812c16.396-.351 18.229-.58 24.029-2.993 10.494-4.366 17.299-8.94 25.793-17.34 9.378-9.274 16.164-20.045 20.149-31.981 2.375-7.117 2.667-9.49 2.643-21.5-.025-11.974-.34-14.461-2.787-22-6.253-19.264-18.444-34.295-34.122-42.074C200.111-.198 204.341.025 100.25.012L5 0z"/><path fill="#1976D2" fill-opacity=".315" fill-rule="evenodd" d="M5 89.971V180h60V58h118.2l3.321 3.321c4.306 4.306 5.293 9.26 3.027 15.194-.931 2.435-3.044 5.566-4.697 6.957L181.847 86H93.76l.529 25.25c.555 26.469 1.497 33.321 6.837 49.75 3.404 10.476 12.416 26.83 19.945 36.196 16.244 20.209 46.507 40.383 74.429 49.616 15.033 4.971 38.42 9.188 50.961 9.188H250v-58.694l-10.75-.624c-12.899-.748-26.498-2.994-34.94-5.77-15.833-5.206-34.017-22.54-43.672-41.629-1.451-2.869-2.638-5.456-2.638-5.75s7.889-.533 17.532-.533c15.125 0 18.385-.287 23.75-2.088 8.766-2.943 16.931-8.17 25.552-16.358 22.796-21.648 29.99-48.939 20.656-78.366-3.353-10.569-8.714-19.325-16.99-27.748-7.6-7.734-13.132-11.37-23.38-15.361L198.5.5 101.75.221 5-.057z"/><path fill="#1976D2" fill-opacity=".191" fill-rule="evenodd" d="M5 89.967V180h60V57l57.75.002c64.6.001 62.915-.176 66.498 6.998 3.414 6.833 1.94 13.638-4.224 19.5l-3.154 3-44.07.281-44.07.28.553 22.72c.591 24.223 1.936 34.457 6.387 48.593 5.917 18.793 15.183 33.81 29.694 48.126 19.974 19.706 45.097 34.264 73.221 42.429 8.629 2.506 28.136 5.744 38.665 6.42l7.75.497v-57.687l-6.75-.582c-26.713-2.306-41.756-5.88-51.25-12.177-6.686-4.434-16.651-13.94-22.508-21.47-4.563-5.867-11.492-17.783-11.492-19.763 0-.842 4.543-1.167 16.29-1.167 11.401 0 18.054-.46 22.168-1.531 17.556-4.573 35.435-20.408 45.128-39.969 5.941-11.988 7.751-20.9 7.108-35C247.3 35.933 229.619 11.652 202 2.378 196.831.642 190.744.513 100.75.232L5-.067z"/></svg>