<?xml version="1.0" encoding="UTF-8" standalone="no"?>
<svg
   width="2363"
   height="2159"
   xml:space="preserve"
   overflow="hidden"
   version="1.1"
   id="svg19"
   xmlns="http://www.w3.org/2000/svg"
   xmlns:svg="http://www.w3.org/2000/svg"><defs
     id="defs1"><clipPath
       id="clip0"><rect
         x="903"
         y="158"
         width="2363"
         height="2159"
         id="rect1" /></clipPath></defs><g
     clip-path="url(#clip0)"
     transform="translate(-903 -158)"
     id="g19"><path
       d="M904 1029.9 904 158.012 1783.42 158.012C1946.45 156.406 2089.33 311.155 2086.15 506.146 2082.97 701.137 1903.49 849.563 1783.02 851.972L1642.42 851.972C1675.35 933.862 1750.28 1020.32 1824.38 1063.62 1898.48 1106.93 2074.15 1112.6 2087 1111.79L2087 1396C1882.2 1393.59 1684.33 1321.79 1520.5 1172.46 1356.66 1023.13 1336.13 830.32 1332.87 738.47 1329.6 646.619 1332.87 629.283 1332.87 574.689L1744.87 574.689C1768.81 573.429 1803.46 538.956 1801.53 499.742 1799.59 460.529 1772.82 437.293 1743.78 437.403L1193.12 437.403 1193.12 1029.9 904 1029.9Z"
       fill="#1F9343"
       fill-rule="evenodd"
       id="path1" /><path
       d="M2160.01 158 2434.5 158 2439.31 460.527 2439.31 1036.71C2439.2 1067.1 2462.43 1095.11 2501.63 1097.13 2540.83 1099.15 2575.29 1062.9 2576.55 1037.85L2576.55 804.709 2856 804.709 2853.75 1077.77C2851.34 1203.82 2702.96 1391.62 2508.03 1394.95 2313.11 1398.27 2158.41 1248.78 2160.01 1078.19L2160.01 158Z"
       fill="#173A79"
       fill-rule="evenodd"
       id="path2" /><path
       d="M3265.99 1395 2991.11 1395 2986.29 1092.47 2986.29 516.294C2986.4 485.904 2963.13 457.89 2923.88 455.868 2884.62 453.846 2850.11 490.099 2848.85 515.152L2848.85 748.291 2569 748.291 2571.26 475.235C2573.67 349.182 2722.26 161.381 2917.47 158.054 3112.67 154.728 3267.6 304.224 3265.99 474.815L3265.99 1395Z"
       fill="#173A79"
       fill-rule="evenodd"
       id="path3"
       style="fill:#1f9343;fill-opacity:1" /><path
       d="M903 1076.43C996.184 1075.62 1089.37 1074.81 1182.55 1074L1182.5 1230.54 1182.5 1584.68 1182.5 1587.07 1182.5 1680.85C1182.44 1697.94 1189.77 1714.29 1203.17 1725.68L1218.51 1735.23 1226.86 1735.23 1230.16 1736.18C1234.55 1737.07 1239.21 1737.65 1244.11 1737.87L1250.48 1737.51 1250.48 1739.7 1394.02 1736.95 1394.02 1587.07 1668.7 1587.07 1671.23 1735.23 1860 1735.23 1860 1998.06 1673.52 1998.06 1673.52 2317 1394.02 2317 1394.02 1998.06 1250.48 1998.06 1247.29 1998.06 1247.29 1997.97 1214.44 1997.07C1048.56 1985.4 919.054 1877.02 903.748 1749.02L903 1735.23 903.612 1735.23 903 1722.33 903 1587.07 903 1584.68 903 1076.43Z"
       fill="#173A79"
       fill-rule="evenodd"
       id="path4" /><path
       d="M2165.5 1552C2229.4 1552.86 2280.08 1571.88 2317.54 1609.04 2355 1646.21 2374.15 1696.36 2375 1759.5 2374.68 1800 2366.05 1835.79 2349.09 1866.86 2332.14 1897.93 2308.75 1922.31 2278.93 1939.99 2249.12 1957.67 2214.76 1966.67 2175.86 1967 2136.41 1966.67 2104.91 1959.56 2081.36 1945.68 2057.81 1931.8 2045.74 1913.16 2045.16 1889.75L2045.16 1884.56 2039.4 1883.99 2039.4 1961.23 1956.57 1961.23 1956 1759.5C1956.88 1696.36 1976.11 1646.21 2013.68 1609.04 2051.25 1571.88 2101.85 1552.86 2165.5 1552ZM2165.5 1630.33C2126.76 1630.85 2096.27 1642.64 2074.02 1665.72 2051.76 1688.8 2040.42 1720.06 2039.97 1759.5 2040.27 1798.94 2051.48 1830.2 2073.59 1853.28 2095.69 1876.36 2126.91 1888.15 2167.23 1888.67 2205.16 1888.15 2235.25 1876.36 2257.49 1853.28 2279.73 1830.2 2291.1 1798.94 2291.6 1759.5 2291.14 1720.06 2279.69 1688.8 2257.27 1665.72 2234.85 1642.64 2204.26 1630.85 2165.5 1630.33Z"
       fill="#1F9343"
       fill-rule="evenodd"
       id="path5" /><path
       d="M2954.44 1552C3007.86 1552.24 3050.14 1566.73 3081.27 1595.47 3112.41 1624.21 3128.32 1665.78 3129 1720.17L3129 1961 3045.52 1961 3045.52 1720.17C3044.91 1690.73 3035.9 1668.5 3018.5 1653.48 3001.1 1638.45 2978.98 1630.91 2952.14 1630.86 2925.37 1630.91 2903.53 1638.45 2886.64 1653.48 2869.74 1668.5 2861.02 1690.73 2860.48 1720.17L2860.48 1961 2777 1961 2777 1720.17C2777.66 1665.78 2793.76 1624.21 2825.3 1595.47 2856.85 1566.73 2899.9 1552.24 2954.44 1552Z"
       fill="#1F9343"
       fill-rule="evenodd"
       id="path6" /><path
       d="M2675.21 1558 2738 1558 2738 1961 2654.47 1961 2654.47 1862.54 2494.11 1862.54 2494.11 1961 2410 1961 2410 1817.09C2410.27 1732.46 2432.92 1668.19 2477.94 1624.26 2522.95 1580.34 2588.71 1558.25 2675.21 1558ZM2643.51 1636.81C2599.98 1637.2 2565.47 1650.4 2539.97 1676.42 2514.47 1702.44 2499.56 1738.98 2495.26 1786.02L2654.47 1786.02 2654.47 1636.81 2643.51 1636.81Z"
       fill="#1F9343"
       fill-rule="evenodd"
       id="path7" /><path
       d="M3167 1558 3251 1558 3251 1961 3167 1961 3167 1558Z"
       fill="#1F9343"
       fill-rule="evenodd"
       id="path8" /><path
       d="M2221.95 2100C2237.53 2100.17 2250.42 2104.14 2260.61 2111.89 2270.81 2119.64 2277.27 2130.14 2280 2143.38L2253.78 2143.38C2250.91 2136.93 2246.86 2131.94 2241.63 2128.41 2236.4 2124.88 2229.84 2123.09 2221.95 2123.05 2210.64 2123.19 2201.67 2126.7 2195.03 2133.56 2188.38 2140.41 2184.99 2149.73 2184.83 2161.5 2184.99 2173.2 2188.38 2182.49 2195.03 2189.38 2201.67 2196.27 2210.64 2199.79 2221.95 2199.95 2229.84 2199.91 2236.4 2198.12 2241.63 2194.59 2246.86 2191.06 2250.91 2186.07 2253.78 2179.62L2280 2179.62C2277.27 2192.79 2270.81 2203.26 2260.61 2211.05 2250.42 2218.83 2237.53 2222.82 2221.95 2223 2203.13 2222.74 2188.17 2217.11 2177.06 2206.09 2165.95 2195.08 2160.26 2180.21 2160 2161.5 2160.26 2142.79 2165.95 2127.92 2177.06 2116.91 2188.17 2105.89 2203.13 2100.26 2221.95 2100Z"
       fill="#1F9343"
       fill-rule="evenodd"
       id="path9" /><path
       d="M2740.99 2100C2752.09 2100.1 2761.36 2102.71 2768.8 2107.83 2776.23 2112.96 2780.21 2120 2780.73 2128.96L2782.44 2128.96C2782.88 2120 2786.89 2112.96 2794.46 2107.83 2802.03 2102.71 2811.5 2100.1 2822.86 2100 2837.94 2100.07 2850.01 2104.36 2859.06 2112.86 2868.12 2121.36 2872.77 2133.66 2873 2149.75L2873 2221 2848.29 2221 2848.29 2149.75C2848.1 2141.12 2845.44 2134.56 2840.31 2130.08 2835.18 2125.61 2828.68 2123.36 2820.82 2123.33 2812.97 2123.34 2806.56 2125.57 2801.58 2130.02 2796.59 2134.47 2794.02 2141.04 2793.86 2149.75L2793.86 2221 2768.97 2221 2768.97 2149.75C2768.8 2141.12 2766.17 2134.56 2761.08 2130.08 2756 2125.61 2749.53 2123.36 2741.67 2123.33 2733.83 2123.34 2727.42 2125.57 2722.43 2130.02 2717.45 2134.47 2714.87 2141.04 2714.71 2149.75L2714.71 2221 2690 2221 2690 2149.75C2690.23 2133.73 2694.93 2121.46 2704.11 2112.92 2713.28 2104.39 2725.58 2100.08 2740.99 2100Z"
       fill="#1F9343"
       fill-rule="evenodd"
       id="path10" /><path
       d="M3042.93 2100C3058.59 2100.22 3070.96 2104.25 3080.06 2112.12 3089.16 2119.98 3093.8 2130.37 3094 2143.28 3093.82 2152.04 3091.97 2159 3088.47 2164.18 3084.96 2169.35 3080.87 2173.06 3076.19 2175.29 3071.5 2177.53 3067.3 2178.62 3063.59 2178.57L3063.59 2180.27C3068.14 2180.37 3072.38 2181.67 3076.3 2184.17 3080.23 2186.67 3083.22 2189.8 3085.29 2193.56L3101 2221 3072.83 2221 3061.2 2200.89C3059.48 2197.31 3057.03 2194.62 3053.86 2192.83 3050.68 2191.04 3046.87 2190.15 3042.42 2190.15L3039.52 2190.15 3039.52 2167.33 3042.25 2167.33C3050.54 2167.26 3057.09 2165.3 3061.89 2161.45 3066.69 2157.59 3069.14 2152.22 3069.25 2145.33 3069.17 2138.44 3066.84 2133.04 3062.23 2129.13 3057.63 2125.22 3051.2 2123.23 3042.93 2123.16 3034.55 2123.25 3027.98 2125.42 3023.21 2129.68 3018.44 2133.95 3016.01 2139.79 3015.92 2147.21L3015.92 2221 2991 2221 2991 2147.21C2991.21 2132.86 2995.95 2121.45 3005.24 2112.99 3014.52 2104.53 3027.08 2100.2 3042.93 2100Z"
       fill="#1F9343"
       fill-rule="evenodd"
       id="path11" /><path
       d="M1945 2102 2052 2102 2052 2124.59 2010.76 2124.59 2010.76 2221 1986.24 2221 1986.24 2124.59 1945 2124.59 1945 2102Z"
       fill="#1F9343"
       fill-rule="evenodd"
       id="path12" /><path
       d="M2083.2 2102 2153 2102 2153 2124.59 2086.79 2124.59 2086.79 2150.29 2143.08 2150.29 2143.08 2172.71 2086.79 2172.71 2086.79 2198.41 2153 2198.41 2153 2221 2083.2 2221C2076.71 2220.91 2071.57 2218.96 2067.79 2215.16 2064.01 2211.36 2062.08 2206.22 2062 2199.77L2062 2178.67C2061.99 2173.74 2063.2 2169.78 2065.63 2166.81 2068.06 2163.84 2071.75 2162.35 2076.7 2162.35L2077.9 2162.35 2077.73 2160.65 2076.7 2160.65C2071.75 2160.58 2068.06 2159.07 2065.63 2156.13 2063.2 2153.18 2061.99 2149.25 2062 2144.33L2062 2123.23C2062.08 2116.78 2064.01 2111.64 2067.79 2107.84 2071.57 2104.03 2076.71 2102.09 2083.2 2102Z"
       fill="#1F9343"
       fill-rule="evenodd"
       id="path13" /><path
       d="M2291 2102 2315.76 2102 2315.76 2198.41 2376 2198.41 2376 2221 2312.03 2221C2305.51 2220.93 2300.4 2219.03 2296.68 2215.31 2292.96 2211.59 2291.07 2206.46 2291 2199.94L2291 2102Z"
       fill="#1F9343"
       fill-rule="evenodd"
       id="path14" /><path
       d="M2464.62 2102 2483 2102 2483 2221 2458.55 2221 2458.55 2191.92 2411.62 2191.92 2411.62 2221 2387 2221 2387 2178.5C2387.08 2153.52 2393.71 2134.54 2406.88 2121.57 2420.06 2108.6 2439.31 2102.07 2464.62 2102ZM2455.34 2125.27C2442.6 2125.39 2432.5 2129.28 2425.04 2136.97 2417.58 2144.65 2413.21 2155.44 2411.95 2169.33L2458.55 2169.33 2458.55 2125.27 2455.34 2125.27Z"
       fill="#1F9343"
       fill-rule="evenodd"
       id="path15" /><path
       d="M2555.01 2102 2623.71 2102 2623.71 2124.59 2558.57 2124.59 2558.57 2150.29 2641 2150.29 2641 2172.71 2630.65 2172.71 2630.65 2200.62C2630.56 2206.96 2628.59 2211.93 2624.74 2215.52 2620.9 2219.11 2615.75 2220.94 2609.3 2221L2555.01 2221C2548.58 2220.91 2543.49 2218.96 2539.74 2215.16 2536 2211.36 2534.08 2206.22 2534 2199.77L2534 2178.67C2533.99 2173.74 2535.19 2169.78 2537.6 2166.81 2540.01 2163.84 2543.67 2162.35 2548.57 2162.35L2549.76 2162.35 2549.59 2160.65 2548.57 2160.65C2543.67 2160.58 2540.01 2159.07 2537.6 2156.13 2535.19 2153.18 2533.99 2149.25 2534 2144.33L2534 2123.23C2534.08 2116.78 2536 2111.64 2539.74 2107.84 2543.49 2104.03 2548.58 2102.09 2555.01 2102ZM2558.57 2172.71 2558.57 2198.41 2606.08 2198.41 2606.08 2172.71 2558.57 2172.71Z"
       fill="#1F9343"
       fill-rule="evenodd"
       id="path16" /><path
       d="M2962.43 2102 2981 2102 2981 2221 2956.3 2221 2956.3 2191.92 2908.87 2191.92 2908.87 2221 2884 2221 2884 2178.5C2884.08 2153.52 2890.78 2134.54 2904.09 2121.57 2917.4 2108.6 2936.85 2102.07 2962.43 2102ZM2953.06 2125.27C2940.18 2125.39 2929.98 2129.28 2922.44 2136.97 2914.89 2144.65 2910.49 2155.44 2909.21 2169.33L2956.3 2169.33 2956.3 2125.27 2953.06 2125.27Z"
       fill="#1F9343"
       fill-rule="evenodd"
       id="path17" /><path
       d="M3100 2102 3207 2102 3207 2124.59 3165.76 2124.59 3165.76 2221 3141.24 2221 3141.24 2124.59 3100 2124.59 3100 2102Z"
       fill="#1F9343"
       fill-rule="evenodd"
       id="path18" /><path
       d="M3217 2102 3242 2102 3242 2221 3217 2221 3217 2102Z"
       fill="#1F9343"
       fill-rule="evenodd"
       id="path19" /></g></svg>
